<?xml version="1.0" encoding="utf-8"?>
<!-- Generator: Adobe Illustrator 19.2.0, SVG Export Plug-In . SVG Version: 6.00 Build 0)  -->
<svg version="1.1" id="Calque_1" xmlns="http://www.w3.org/2000/svg" xmlns:xlink="http://www.w3.org/1999/xlink" x="0px" y="0px"
	 viewBox="0 0 177.6 40.4" style="enable-background:new 0 0 177.6 40.4;" xml:space="preserve">
<style type="text/css">
	.st0{fill:#FFFFFF;}
</style>
<title>20151215_ANDCO_Logo_Texte</title>
<path class="st0" d="M116.2,26.2l9.2,2c-1.6,7.4-8.2,12.2-16,12.2c-9.4,0-17.1-6.7-17.1-16.6S100,7.2,109.4,7.2
	c7.6,0,14.2,4.7,16,12.1l-9.4,2.2c-0.9-3.8-3.4-5.6-6.6-5.6c-4.5,0-7.5,3.3-7.5,7.9s3,7.9,7.5,7.9C112.6,31.7,115.1,30,116.2,26.2z"
	/>
<path class="st0" d="M163.1,23.8c0,9.9-7.9,16.5-17.2,16.5c-9.5,0-17.4-6.6-17.4-16.5s7.9-16.5,17.4-16.5
	C155.1,7.3,163.1,13.9,163.1,23.8z M153.5,23.8c-0.2-4.2-3.9-7.5-8.1-7.2s-7.5,3.9-7.2,8.1c0.2,4.1,3.7,7.3,7.8,7.2
	C150.2,31.8,153.6,28.2,153.5,23.8C153.5,23.9,153.5,23.8,153.5,23.8L153.5,23.8z"/>
<path class="st0" d="M177.6,34.2c-0.1,3.2-2.8,5.6-6,5.5c-3-0.1-5.4-2.5-5.5-5.5c0.1-3.2,2.8-5.6,6-5.5
	C175.1,28.8,177.5,31.2,177.6,34.2z"/>
<path class="st0" d="M19.8,39.4v-3.5c-2.5,2.8-6.1,4.3-9.9,4.2c-5,0-10-3.4-10-9.5s4.9-9.5,10-9.5c3.7-0.1,7.4,1.4,9.9,4.2v-6.4
	c0-4.6-3.7-7.1-8-7.1c-3.7,0-6.5,1.3-9.1,4.5l-1.4-1.2c2.5-3.2,6.4-5.1,10.5-4.9c5.6,0,9.8,2.8,9.8,8.6v20.6H19.8L19.8,39.4z
	 M19.8,34.1V27c-2.3-2.9-5.7-4.5-9.4-4.4c-5.2,0-8.5,3.5-8.5,7.9s3.3,7.9,8.5,7.9C14.1,38.6,17.6,36.9,19.8,34.1L19.8,34.1z"/>
<path class="st0" d="M50.9,39.4V19.4c0-6-2.9-7.7-7.4-7.7c-4,0.2-7.7,2.2-10.1,5.4v22.3h-1.8V10.8h1.8v4.5c2.1-2.6,6.4-5.2,10.3-5.2
	c5.7,0,8.9,2.6,8.9,9.3v19.9H50.9L50.9,39.4z"/>
<path class="st0" d="M84.3,39.4v-4.8C82,38,78.2,40,74,40.1c-7.7,0-12.7-5.9-12.7-14.9s5.1-15,12.7-15c4.1,0,8,2.1,10.3,5.6V0h1.8
	v39.4H84.3z M84.3,32.8V17.5c-2.2-3.5-6.1-5.7-10.3-5.8c-7,0-10.8,5.9-10.8,13.4S67.1,38.4,74,38.4C78.2,38.4,82,36.3,84.3,32.8
	L84.3,32.8z"/>
</svg>
